<svg width="1909" height="7891" viewBox="0 0 1909 7891" fill="none" xmlns="http://www.w3.org/2000/svg">
<path d="M785.5 1224C786.654 1280.5 788 1389 783.073 1397.5C781 1404.5 783.073 1404.55 783.073 1425C783.073 1442.5 775.161 1454.5 774.667 1455.5C774.172 1456.5 758.35 1480.5 741.538 1498C724.726 1515.5 691.972 1603.5 625.34 1603.5C616 1603.5 615.352 1603.8 605.067 1597C592.211 1588.5 543.925 1566.59 538.315 1560C531.5 1552 527.437 1546.5 544.248 1498C548.863 1487.5 544.38 1473 551.5 1467C563.96 1456.5 563.614 1465.6 569 1459.5C584 1442.5 599.5 1414.5 608.528 1417.5C618.871 1420.94 613.638 1441.67 606.55 1447.5C617.593 1439.33 624.779 1424 634.701 1427.5C644.624 1431 633.416 1449.33 628.307 1456.5C636.548 1450 648.5 1431.5 655.996 1439.5C663.024 1447 649.568 1457.33 644.624 1462C639.679 1466.67 634.701 1474 644.624 1467C650.385 1462.94 653.03 1455.5 658.5 1454C663.5 1451.5 669 1456.5 667.864 1463C666.519 1470.69 649.967 1489 647 1493C644.033 1497 640.45 1499.27 636 1510C629.572 1525.5 615.928 1539 609.5 1545C603.072 1551 593 1557 587.266 1563.5C582.043 1569.42 588.75 1583 581.827 1588C576.29 1592 563.038 1588.33 557.104 1586C547.38 1581.67 526.745 1572.3 521.998 1569.5C516.064 1566 464.641 1528 452.774 1522C440.907 1516 424.095 1501 421.623 1485C419.645 1472.2 415.195 1467 413.217 1466C411.569 1464.67 405.207 1462.8 392.944 1466C377.616 1470 360.804 1475.5 360.804 1488C360.804 1498 387.835 1493.5 401.35 1490C407.778 1487.33 423.106 1482.6 432.995 1485C442.885 1487.4 469.421 1484.33 481.453 1482.5C488.375 1480.67 503.703 1475.9 509.636 1471.5C517.053 1466 534.359 1455.5 536.337 1455.5C538.315 1455.5 563.532 1445 556.61 1439C551.072 1434.2 529.25 1438.67 519.031 1441.5C509.636 1444 490.847 1447.7 490.847 1442.5C490.847 1436 488.869 1432.5 509.636 1417.5C526.25 1405.5 539.634 1407.17 544.248 1409.5C550.182 1412 562.642 1416 565.016 1412C567.389 1408 562.708 1403.33 560.071 1401.5C556.445 1398.33 542.963 1393.1 518.042 1397.5C493.121 1401.9 504.362 1394 513.098 1389.5C517.218 1387.83 528.03 1385.5 538.315 1389.5C548.6 1393.5 549.852 1389.83 549.193 1387.5C546.391 1383.5 538.018 1375.5 526.942 1375.5C513.098 1375.5 503.209 1384.5 501.725 1385.5C500.539 1386.3 496.286 1387.17 494.309 1387.5L503.703 1378.5C506.999 1375.5 510.527 1370.1 498.264 1372.5C494.309 1374.17 484.024 1379.9 474.53 1389.5C464.311 1398.17 443.676 1415.7 442.885 1416.5C441.896 1417.5 414.206 1446 406.294 1447C398.383 1448 388.494 1445.5 383.549 1447C378.605 1448.5 358.332 1457 354.376 1450.5C350.421 1444 358.826 1431.5 369.704 1422C380.583 1412.5 384.538 1401 384.538 1400.5C384.538 1400 386.516 1396 382.066 1385.5C377.616 1375 372.177 1366.5 377.121 1360C381.077 1354.8 403.822 1359.83 414.7 1363C427.886 1366.33 457.026 1369 468.102 1353C469.586 1350.17 472.552 1341.9 472.552 1331.5C472.552 1321.1 470.574 1294.5 469.586 1282.5C469.421 1270 463.85 1244.6 442.885 1243C416.678 1241 402.833 1245 396.9 1249C390.966 1253 383.549 1261.5 384.538 1266.5C385.527 1271.5 394.922 1282 416.184 1281C437.445 1280 454.752 1270 452.774 1260.5C451.191 1252.9 434.973 1250.33 427.062 1250C412.887 1249.67 383.648 1253.9 380.088 1273.5C376.528 1293.1 390.801 1315.33 398.383 1324C399.372 1325.5 402.042 1329.8 404.811 1335C408.272 1341.5 410.745 1353 414.7 1353C418.656 1353 426.567 1353 440.412 1351C451.488 1349.4 456.894 1348.33 458.213 1348C466.454 1343.33 478.486 1334.5 460.685 1336.5C438.434 1339 365.254 1346 352.398 1353C175.382 1392.33 55.8232 1498 151.648 1586C202.73 1632.91 376.832 1657.67 392.325 1636.5C400.731 1613 410.063 1588 345.189 1588C280.316 1588 255.275 1647 251.319 1661.5C228.579 1744.86 288.062 1766.46 311.566 1774.5C380.296 1798 457.718 1821 493.814 1791.5C503.209 1783.82 501.132 1761 451.29 1761C401.449 1761 392.944 1807.33 394.922 1830.5C394.922 1838.67 394.922 1851 411.27 1873.5C439.913 1912.92 509.15 1970.59 553.18 1948.5C594.045 1928 568.509 1910 568.509 1910C553.345 1903.33 529.842 1917.3 533.402 1948.5C536.962 1979.7 559.513 1988 568.509 1992.5C633.788 2021.33 783.302 2068.7 934.409 2053.5C1085.52 2038.3 1052.09 2163 961.11 2208.5C914.633 2231.74 644.16 2341.5 545.763 2386.5C452.878 2428.98 367.263 2480.5 341.551 2492.5C315.839 2504.5 270.843 2534 238.703 2551.5C114.429 2628 -96.8369 2812.5 52.2922 3018.5C201.421 3224.5 826.123 3155.33 1119.83 3095C1245.52 3074.78 1383.46 3016.89 1514.09 3068C1625.68 3111.66 1734 3200.04 1668.19 3370.5C1632.09 3464 1514.09 3584.5 1119.83 3626.5C1020.46 3637.09 716.01 3690.94 729.702 3891C739.591 4035.5 962.996 3950.84 1066.92 3954C1329.98 3962 1217.73 4094 1182.13 4086C1146.53 4078 1337.27 4015.3 1345.98 3968.5C1345.98 3958.5 1345.98 3938.2 1345.98 3937C1345.98 3935.8 1478.49 3857.5 1544.75 3818.5L1366.25 3946L1433.99 3989.5L1547.72 3816L1311.86 3916L1334.6 3931L1330.15 3989.5L1372.18 3961C1390.81 3971 1349.22 4061.27 1385.85 4103.5C1433.55 4158.49 1474.95 4179.5 1572.26 4103.5C1669.57 4027.5 1643.96 4005.5 1620.22 4011C1596.49 4016.5 1566.43 4055.2 1620.22 4086C1674.02 4116.8 1886.24 3875.5 1908 3816M1483.66 5874C1484.06 5853.2 1485.65 5837.33 1485.32 5837C1484.66 5833.33 1480.97 5826 1471.48 5826C1461.98 5826 1450.05 5825.67 1445.27 5825.5C1446.92 5822.17 1450.02 5812.2 1449.22 5799C1448.43 5785.8 1445.93 5772.5 1444.77 5767.5C1443.46 5761.5 1440.03 5749 1436.86 5747C1432.91 5744.5 1426.97 5742.5 1425 5747C1423.02 5751.5 1428.46 5756 1428.95 5756.5C1429.45 5757 1442.3 5762 1451.2 5761C1458.32 5760.2 1459.11 5741.33 1458.62 5732C1458.12 5729.33 1456.64 5724.8 1454.66 5728C1452.19 5732 1448.24 5762.5 1458.62 5761C1469 5759.5 1475.43 5758 1479.39 5755C1482.55 5752.6 1482.02 5748.67 1481.36 5747C1480.38 5745.33 1477.21 5743 1472.46 5747C1467.72 5751 1464.55 5763 1463.56 5768.5C1461.92 5777.67 1458.62 5796.6 1458.62 5799C1458.62 5802 1455.65 5828.5 1457.14 5829C1458.62 5829.5 1480.87 5826.5 1481.86 5825C1482.85 5823.5 1491.25 5816 1495.7 5818C1493.4 5813.17 1489.97 5803.4 1494.71 5803C1500.65 5802.5 1511.03 5804 1511.53 5804.5C1512.02 5805 1508.07 5788.5 1513.01 5785C1517.95 5781.5 1544.66 5790 1544.66 5790.5C1544.66 5791 1522.4 5781.5 1524.88 5759.5C1526.85 5741.9 1546.47 5742.5 1556.03 5745C1548.28 5743.5 1532.59 5736.2 1531.8 5719C1531.63 5715.33 1534.37 5708.7 1546.63 5711.5C1538.89 5709.5 1522.6 5701.8 1519.44 5687C1516.27 5672.2 1523.39 5665.17 1527.35 5663.5C1517.79 5667 1494.42 5672.8 1477.41 5668C1460.4 5663.2 1467.68 5652 1473.45 5647C1468.34 5652.67 1456.54 5664.1 1450.21 5664.5C1443.88 5664.9 1438.35 5647.33 1436.37 5638.5C1436.2 5649.33 1433.11 5671.8 1422.03 5675C1410.95 5678.2 1404.56 5669.33 1402.75 5664.5C1403.24 5671.33 1402.84 5686.3 1397.31 5691.5C1390.38 5698 1359.23 5688 1352.8 5684.5C1360.22 5690.67 1375.06 5705.2 1375.06 5714C1375.06 5725 1373.08 5729 1364.18 5728.5C1368.79 5731.5 1377.92 5739.8 1377.53 5749C1377.13 5758.2 1359.23 5762.5 1350.33 5763.5C1361.54 5765.83 1383.76 5774 1382.97 5788C1382.18 5802 1370.44 5805.17 1364.67 5805C1375.71 5803.83 1399.98 5803.1 1408.68 5809.5C1417.38 5815.9 1418.9 5824.5 1418.57 5828C1418.4 5834.17 1418.17 5846.9 1418.57 5848.5C1419.06 5850.5 1420.05 5867 1425.49 5871C1429.84 5874.2 1437.85 5875.67 1441.31 5876C1447.41 5876 1459.9 5875.9 1461.09 5875.5C1462.58 5875 1465.05 5874.5 1465.05 5871.5C1465.05 5869.1 1460.43 5867.83 1458.12 5867.5H1445.27L1469 5867C1470.16 5866.83 1472.56 5865.6 1472.96 5862C1473.35 5858.4 1471.48 5855.83 1470.49 5855C1469.83 5854.33 1468.01 5853 1466.04 5853C1464.06 5853 1449.72 5852.67 1442.8 5852.5C1440.65 5852.67 1436.86 5853.4 1438.84 5855C1440.82 5856.6 1449.55 5857 1453.67 5857C1459.94 5857.5 1473.06 5857.4 1475.43 5853C1477.8 5848.6 1474.77 5845.17 1472.96 5844C1471.64 5843 1467.12 5841 1459.61 5841C1450.21 5841 1441.31 5840 1441.31 5842.5C1441.31 5844.5 1454.5 5844.67 1461.09 5844.5C1465.54 5844.5 1474.54 5843.2 1474.94 5838C1475.33 5832.8 1465.21 5830.83 1460.1 5830.5C1454.99 5830.5 1444.77 5831.1 1444.77 5833.5C1444.77 5835.9 1457.63 5835.83 1464.06 5835.5C1467.35 5835.33 1474.34 5834.3 1475.93 5831.5C1477.51 5828.7 1478.89 5822 1479.39 5819V5810C1482.68 5805.83 1490.26 5796.5 1494.22 5792.5C1499.17 5787.5 1511.03 5767 1512.02 5762C1513.01 5757 1515.48 5739.5 1514.49 5730.5C1513.5 5721.5 1507.08 5705.5 1503.62 5701.5C1500.15 5697.5 1485.81 5683.5 1473.95 5679C1462.08 5674.5 1443.79 5674 1436.37 5677.5C1428.95 5681 1414.12 5688 1406.7 5695.5C1399.28 5703 1393.35 5711 1390.88 5721C1388.41 5731 1387.91 5734 1388.9 5753C1389.07 5759.17 1390.78 5773.3 1396.32 5780.5C1403.24 5789.5 1407.2 5795.5 1413.13 5799.5C1417.88 5802.7 1420.05 5805.17 1420.55 5806C1421.37 5807.5 1423.02 5810.8 1423.02 5812C1423.02 5813.5 1423.02 5826 1423.02 5826.5C1423.02 5827 1423.02 5833.5 1427.96 5833.5C1431.92 5833.5 1438.84 5831.17 1441.81 5830C1442.3 5829.33 1442.8 5828 1440.82 5828C1438.35 5828 1423.51 5830 1425 5836C1426.18 5840.8 1433.07 5842 1436.37 5842C1433.24 5842.5 1426.88 5844.5 1426.48 5848.5C1426.08 5852.5 1431.92 5852.5 1434.89 5852C1432.58 5854.33 1428.06 5859.6 1428.46 5862C1428.95 5865 1430.44 5866.5 1435.87 5867C1441.31 5867.5 1440.82 5867.5 1441.31 5868C1441.71 5868.4 1441.81 5875.83 1441.81 5879.5L1472.46 5879C1474.44 5879 1478.4 5880.1 1478.4 5884.5C1478.4 5888.9 1535 6063 1397.5 6121C1281.86 6169.78 1174.46 6218 1079.46 6324C1020.32 6389.99 916 6673 853 6744.5C763.017 6846.62 474.161 6850.16 272 7012C165.197 7097.5 154.069 7337 249.5 7444.5C344.931 7552 505.859 7573 524.007 7573C548.059 7573 584.014 7574 585.497 7574C586.981 7574 592.42 7574 595.386 7582C597.76 7588.4 596.375 7594.67 595.386 7597C594.068 7600 590.244 7606 585.497 7606C580.75 7606 578.904 7600 578.575 7597C578.74 7594.67 580.058 7589.3 584.014 7586.5C588.958 7583 596.87 7578 602.309 7577C607.748 7576 635.438 7573 643.844 7573C652.249 7573 693.289 7570 694.278 7570C695.267 7570 717.518 7567.5 728.891 7557.5C737.989 7549.5 742.241 7537.5 743.23 7532.5C743.724 7529.33 743.922 7522.8 740.758 7522C736.802 7521 730.868 7524.5 728.891 7526.5C726.913 7528.5 722.463 7535.5 719.99 7542C717.518 7548.5 711.09 7570 710.101 7571.5C709.112 7573 696.751 7620 696.751 7619C696.751 7618 686.367 7659 671.039 7673C655.711 7687 648.788 7692 643.844 7694.5C638.899 7697 613.187 7703 604.287 7702.5C597.167 7702.1 582.201 7694.33 575.608 7690.5C570.499 7687 560.28 7678.3 560.28 7671.5C560.28 7663 563.247 7656.5 566.708 7656.5C570.169 7656.5 575.114 7659 579.564 7664C584.014 7669 593.409 7677.5 600.826 7680.5C608.242 7683.5 618.132 7687.5 626.537 7687.5C634.943 7687.5 643.349 7686.5 649.777 7683.5C656.205 7680.5 686.862 7659 689.334 7656.5C691.806 7654 735.319 7607.5 740.758 7600.5C746.197 7593.5 763.503 7568 764.986 7563.5C766.47 7559 768.447 7543.5 763.997 7542C759.547 7540.5 755.591 7543 753.614 7546C751.636 7549 747.68 7559 744.219 7566C740.758 7573 730.868 7603 729.88 7606C729.088 7608.4 721.968 7627.33 718.507 7636.5C715.705 7645.67 709.706 7664.7 708.123 7667.5C706.145 7671 694.773 7697.5 692.795 7688.5C691.213 7681.3 698.069 7668.5 701.695 7663C706.475 7656.83 718.111 7643.4 726.418 7639C731.693 7635.67 742.637 7630 744.219 7634C745.801 7638 741.582 7647.67 739.274 7652C736.802 7656.67 731.66 7666.9 730.868 7670.5C729.879 7675 730.868 7678 730.868 7678.5C730.868 7679 732.846 7682 740.758 7679.5C748.669 7677 763.503 7671.5 766.47 7669C769.436 7666.5 779.82 7658.5 784.27 7650C788.72 7641.5 787.731 7630.5 784.27 7628.5C780.809 7626.5 773.886 7625.5 769.436 7628.5C764.986 7631.5 758.558 7638.5 757.075 7641.5C755.591 7644.5 752.13 7651 751.636 7654.5C751.141 7658 749.658 7665 751.636 7669C753.614 7673 759.547 7680 771.909 7676.5C781.798 7673.7 794.489 7659 799.598 7652C804.378 7644.17 813.147 7628.1 809.982 7626.5C806.817 7624.9 796.467 7640.5 791.687 7648.5C786.578 7657.83 778.93 7676 789.215 7674C802.071 7671.5 861.9 7614 850.033 7610.5C840.54 7607.7 835.199 7638.67 833.716 7654.5C832.892 7664.42 828.673 7682.21 818.388 7674C805.532 7663.74 864.373 7617.5 870.801 7621C875.943 7623.8 861.076 7650.5 853 7663.5C850.033 7669.67 847.462 7679.4 860.911 7669C877.723 7656 985.515 7535 956.836 7526.5C928.158 7518 907.885 7677.5 891.073 7670.5C874.262 7663.5 930.63 7612.5 936.564 7615C942.497 7617.5 925.191 7645 917.28 7645C914.746 7646.17 909.42 7647.8 908.379 7645C907.339 7642.2 912.561 7641.5 915.302 7641.5C916.95 7641.5 920.939 7643.2 923.708 7650C927.169 7658.5 923.708 7672 927.486 7677C932.254 7682 939.178 7688.3 964.748 7675.5C985.021 7668.5 984.526 7701.5 984.526 7710.5C984.526 7722 972.165 7738.5 967.22 7745.5C962.276 7752.5 940.519 7784.5 947.936 7791C955.353 7797.5 1008.26 7772.5 1020.13 7746.5C1031.99 7720.5 1032.49 7711 1030.02 7708C1027.54 7705 1012.22 7729 1009.74 7736C1007.77 7741.6 995.075 7777.67 988.977 7795C979.911 7831.17 957.232 7900.3 939.036 7887.5C916.291 7871.5 935.08 7844 947.936 7832.5C958.221 7823.3 1011.89 7783.67 1037.43 7765C1041.06 7761.83 1046.63 7755.5 1039.91 7755.5C1033.18 7755.5 1023.92 7762.83 1020.13 7766.5C1011.56 7777.17 998.272 7800.4 1013.7 7808C1029.13 7815.6 1052.76 7795.5 1062.65 7784.5C1067.1 7777.33 1073.73 7762.6 1064.63 7761C1053.26 7759 1039.91 7771 1037.43 7776C1034.96 7781 1025.07 7806.5 1044.85 7808C1064.63 7809.5 1084.9 7788.5 1088.86 7783C1092.81 7777.5 1104.19 7760.5 1099.24 7759C1094.3 7757.5 1068.09 7798 1079.46 7801.5C1088.56 7804.3 1104.35 7791.33 1111.11 7784.5C1118.03 7776.17 1130.49 7759.1 1124.95 7757.5C1118.03 7755.5 1098.25 7795.5 1104.68 7798.5C1109.82 7800.9 1114.73 7801.5 1116.55 7801.5C1116.55 7801.5 1147.59 7797.23 1167.48 7794.5C1247.91 7776.83 1406.85 7672.28 1432.06 7641.5C1448.01 7622.02 1438.47 7614.46 1425 7618.57C1416.34 7621.2 1406.06 7631.59 1399.87 7637C1398.06 7624.83 1391.17 7601.6 1378.12 7606C1361.8 7611.5 1384.54 7670 1399.87 7682C1415.2 7694 1669.35 7858.5 1748.47 7722 M1509.5 308.5C1629.5 351 1650.5 450 1650.5 580C1650.5 735.876 1449.65 1025.13 1280.25 1172.57C1244.64 1203.57 1165.32 1277.63 1093.31 1284.03C1003.3 1292.03 1030 1222.05 1061.66 1214.56C1093.31 1207.06 1113.09 1217.05 1122.49 1234.55C1131.88 1252.04 1124.96 1297.02 1093.31 1323.01C1061.66 1349 971.15 1390.49 1005.27 1440.97C1032.57 1481.35 1075.34 1498.11 1093.31 1501.44C1119.35 1512.77 1159.08 1537.33 1109.63 1544.93C1047.81 1554.42 1023.57 1543.43 1021.1 1530.93C1018.63 1518.44 1042.86 1493.95 1049.29 1512.44C1054.43 1527.23 1032.64 1558.26 1021.1 1571.92C1013.85 1579.25 959.612 1609.38 943.454 1604.91C927.295 1600.43 909.032 1591.71 907.845 1580.91C906.658 1570.12 877.474 1572.97 858.389 1576.42C846.471 1578.57 841.277 1587.92 829.209 1586.91C820.475 1586.19 811.405 1584.41 808.437 1578.42C798.381 1565.25 778.961 1537.23 781.731 1530.43C784.5 1523.64 847.178 1491.62 878.171 1476.45C881.633 1474.79 890.041 1473.26 895.976 1480.45C903.394 1489.45 905.867 1490.95 912.296 1504.44C917.44 1515.24 911.472 1521.6 907.845 1523.44C880.149 1539.76 823.571 1572.82 818.823 1574.42C812.888 1576.42 802.008 1581.91 787.171 1576.42C775.301 1572.02 772.004 1560.59 771.84 1555.42C772.004 1553.26 772.928 1549.23 775.301 1550.43C778.269 1551.93 781.731 1553.92 781.731 1558.42C781.731 1562.92 780.247 1565.92 767.883 1563.92C757.992 1562.32 756.838 1547.93 757.497 1540.93C757.332 1537.43 759.475 1528.93 769.367 1522.94C779.258 1516.94 821.956 1495.11 842.068 1484.95C852.124 1478.79 873.423 1465.76 878.171 1462.96C884.106 1459.46 895.481 1453.96 907.845 1460.46C920.209 1466.96 938.508 1483.95 945.432 1497.45C950.971 1508.24 940.487 1518.94 934.552 1522.94L886.084 1553.42C862.84 1565.42 813.878 1589.71 803.986 1590.91C791.622 1592.41 782.225 1589.91 778.763 1586.91C775.301 1583.91 745.133 1555.42 742.166 1540.93C739.792 1529.33 756.343 1514.11 764.916 1507.94C780.742 1495.45 807.943 1465.76 790.138 1446.97C772.334 1428.17 739.858 1449.8 725.845 1462.96C715.294 1475.45 692.412 1498.45 685.29 1490.45C676.388 1480.45 689.247 1459.96 695.676 1446.97C702.106 1433.97 714.964 1402.98 718.921 1401.48C722.086 1400.28 724.856 1400.98 725.845 1401.48C727.493 1402.82 730.296 1406.58 728.318 1410.98C725.845 1416.48 706.557 1413.48 694.193 1409.98C681.828 1406.48 517.632 1355.5 513.676 1349C511.368 1347.84 508.137 1344.41 513.676 1340.01C519.215 1335.61 528.513 1330.84 532.469 1329.01C533.788 1327.85 536.723 1324.71 537.91 1321.51C539.393 1317.52 542.361 1308.02 542.855 1295.52C543.251 1285.53 541.372 1252.71 540.382 1237.55L532.469 1172.07C531.645 1167.57 532.568 1158.98 542.855 1160.58C555.714 1162.58 712.986 1190.06 725.845 1196.06C738.704 1202.06 745.133 1200.56 749.089 1219.05C752.255 1233.85 755.354 1276.2 756.508 1295.52C757.662 1309.19 759.278 1341.71 756.508 1362.5C753.738 1383.29 750.408 1387.82 749.089 1387.49C747.276 1388.99 738.704 1390.49 718.921 1384.49C699.138 1378.49 633.855 1358.33 603.687 1349L546.812 1329.01C535.766 1326.01 513.676 1315.92 513.676 1299.52C510.708 1260.2 505.664 1175.77 509.225 1152.58C509.39 1145.25 514.269 1131.39 532.469 1134.59C555.219 1138.58 724.855 1160.58 761.453 1188.07C768.772 1193.56 780.505 1200.56 784.956 1218.55L785.392 1224" stroke="black" stroke-width="2" stroke-linecap="round"/>
<path d="M277.59 327.534L447.19 263.034L490.208 498.034L413.072 534.534L335.936 571.034C385.217 535.534 489.812 464.234 513.942 463.034C511.469 407.367 501.382 290.634 480.813 269.034C489.878 266.034 509.195 257.734 513.942 248.534C518.689 239.334 557.125 189.367 575.749 160.034C579.21 145.867 588.77 117.534 611.317 117.534C633.864 117.534 653.598 117.534 664.147 117.534C652.28 143.034 632.106 191.034 646.346 223.034C630.523 226.534 605.384 231.434 603.406 223.034C601.428 214.634 640.742 214.201 664.147 215.034C673.871 210.034 691.08 197.313 694.309 195.534C698 193.5 732.217 177.701 750.677 171.034C766.005 168.201 797.75 166.434 802.101 182.034C806.452 197.634 801.277 210.534 798.145 215.034C792.377 223.534 774.114 241.334 747.216 244.534C720.317 247.734 697.77 267.534 689.859 277.034L664.147 301.034C659.202 307.367 651.5 319.5 651.5 319.5C651.5 319.5 606.867 369.534 594.011 378.534C573.903 390.201 533.226 401 533.226 406.034C533.226 412.642 562.728 395.534 579.21 394.034C609.537 377.027 649.5 334.534 653.269 334.534C657.037 334.534 655.182 366.534 672.552 366.534C681.453 366.534 702.385 346.701 708.648 337.534C708.648 337.534 752.655 319.034 752.655 312.534C752.655 306.034 667.113 312.534 667.113 312.534C700.737 306.534 769.368 295.834 774.906 301.034C771.115 279.534 773.027 236.634 811.001 237.034C858.469 237.534 850.558 305.534 841.658 306.034C832.757 306.534 898.871 309.534 896.893 316.534C894.915 323.534 911.232 230.034 907.277 231.534C903.321 233.034 856.064 237.034 856.064 185.034C856.064 155.034 891.828 152.201 911.277 159.034C912.925 130.701 915.232 73.734 911.277 72.534C907.321 71.334 858.964 78.7006 830.78 82.534C848.251 56.034 868.062 2.634 807.54 1.034C747.018 -0.565998 764.192 54.7006 780.345 82.534L698.342 69.534C677.08 122.701 638.336 219.734 681.453 226.534C684.749 225.534 691.342 222.934 691.342 220.534C691.342 218.134 704.528 205.534 711.12 199.534C732.382 187.867 778.169 167.634 791.223 180.034C804.277 192.434 794.684 206.201 788.256 211.534C784.795 215.534 776.785 222.934 772.433 220.534C766.994 217.534 746.721 203.034 752.655 190.034C763.039 193.367 779.554 203.734 762.544 218.534C741.282 237.034 745.238 236.034 735.349 239.034C725.46 242.034 696.287 251.534 687.386 258.534C680.266 264.134 655.411 290.867 643.874 303.534C605.141 348.201 536.291 435.434 530.753 427.034V473.534L504.053 485.034L508.008 511.534L380.438 571.034H1509L1342.54 496.534C1344.68 438.534 1400.6 332.034 1423.15 290.034L1401.39 284.534C1388.04 329.201 1334.62 421.734 1343.71 434.534C1304.49 421.367 1253.95 392.934 1249.59 384.534C1243.17 377.701 1236.62 362.734 1233.85 357.534C1230.39 351.034 1197.26 304.534 1194.29 300.534C1191.33 296.534 1173.03 273.534 1164.13 271.534C1156.38 267.701 1139.31 259.934 1132.98 259.534C1125.07 259.034 1111.22 257.034 1103.31 253.534C1095.4 250.034 1015.3 223.034 1031.12 184.534C1043.78 153.734 1104.3 169.367 1132.98 181.034L1157.21 195.034C1166.44 199.034 1186.78 207.034 1194.29 207.034C1220.33 209.034 1262.85 210.534 1252.56 200.534C1242.28 190.534 1215.72 196.367 1200.23 200.534C1200.39 168.701 1181.85 103.934 1134.38 55.534L1079.08 80.034C1088.48 108.201 1095.8 163.034 1049.91 157.034C1004.02 151.034 1011.34 104.867 1020.74 82.534L944.667 70.534C949.282 99.3673 957.128 158.834 951.59 166.034C927.856 159.867 889.871 141 889.871 190.034C889.871 239.068 926.867 228.201 948.623 220.534C949.612 241.367 949.414 288.334 940.712 309.534C974.829 304.534 1035.57 296.234 1033.59 303.034C1031.12 311.534 998.486 389.034 1069.69 386.034C1126.65 383.634 1110.89 332.034 1095.89 306.534C1125.73 309.201 1184.4 316.134 1180.45 322.534C1189.68 310.534 1202.01 282.434 1177.48 266.034C1152.96 249.634 1122.43 243.201 1110.23 242.034C1083.37 233.701 1031.32 211.634 1038.04 190.034C1044.77 168.434 1071.17 175.034 1083.53 181.034C1086.17 186.201 1089.27 200.034 1080.57 214.034C1076.94 210.367 1071.07 201.434 1076.61 195.034C1083.53 187.034 1095.4 184.534 1097.87 184.534C1100.34 184.534 1124.08 184.034 1145.83 200.534C1163.24 213.734 1182.42 216.367 1189.84 216.034C1187.37 183.534 1178.77 125.134 1164.13 107.534C1179.46 110.034 1208.85 114.034 1231.79 110.034C1254.74 106.034 1264.76 113.367 1266.9 117.534C1283.22 142.367 1315.65 181.034 1314.86 181.034C1313.87 181.034 1365.3 253.534 1371.73 269.034C1372.71 272.534 1376.08 281.234 1381.61 288.034C1387.15 294.834 1415.57 303.201 1429.08 306.534L1438.97 281.034L1512 309.5" stroke="black" stroke-width="2" stroke-linecap="round"/>
</svg>
