<svg width="1316" height="505" viewBox="0 0 1316 505" fill="none" xmlns="http://www.w3.org/2000/svg">
<path d="M0.549805 286.31L172.485 229.605L215.986 464.72L63.7307 502.339C118.971 461.945 225.553 431.576 239.809 431.576C244.988 431.576 226.344 242.033 206.665 235.819C216.332 231.676 236.494 221.526 239.809 214.068C243.123 206.611 281.929 166.071 300.918 140.868C302.989 125.677 312.104 109.763 331.99 109.763C351.877 109.763 376.012 109.763 387.06 109.763C375.321 135.312 356.194 165.595 373.595 187.139C357.023 192.317 327.847 199.568 331.99 187.139C336.133 174.71 372.214 177.817 391.203 180.924C412.608 165.733 458.747 138.359 476.542 134.315C499.328 129.137 515.9 129.137 519.007 144.673C522.115 160.209 521.641 174.166 511.757 187.139C506.233 194.389 486.899 209.925 449.612 214.068C437.183 220.283 424.963 235.092 417.097 242.034C405.358 252.391 381.674 274.763 380.845 281.392C379.81 289.678 320.597 350.788 305.061 354.931C289.525 359.074 257.416 368.395 261.559 372.538C264.874 375.853 285.727 367.705 295.739 363.217L306.097 361.145C327.157 347.335 368.623 316.193 377.738 302.107C373.25 320.06 378.359 345.816 434.704 305.214C453.003 296.928 480.477 279.735 471.363 277.249C462.248 274.763 417.787 276.904 393.274 278.285C425.037 271.725 483.585 260.056 491.042 265.856C488.625 245.141 492.906 203.504 529.365 202.675C574.938 201.639 559.122 263.901 548.764 269.079C567.063 267.698 603.659 268.044 603.659 280.473L614.017 196.577C593.647 197.267 556.934 194.007 565.22 155.892C574.658 112.479 603.314 128.497 618.16 134.711V62.2347L552.151 72.476C566.997 44.1654 582.603 -1.38817 526.258 1.09763C469.913 3.58344 484.828 46.2369 499.328 72.476L461.32 66.7793L423.311 61.0827C401.215 111.835 366.552 187.967 404.668 191.282C406.739 191.627 412.746 190.039 420.204 180.924C429.526 169.531 500.364 126.029 509.686 146.744C519.007 167.459 496.221 187.139 494.149 187.139C492.078 187.139 463.24 164.486 471.363 157.102C475.92 152.959 499.328 168.909 482.756 182.996C466.184 197.082 457.207 203.365 454.791 204.746C443.052 208.199 423.311 217.175 410.882 225.462C395.346 235.819 282.274 371.503 280.203 377.717C278.131 383.932 257.416 397.396 257.416 393.253C257.416 389.939 257.416 423.635 257.416 440.898L231.523 452.291L233.594 479.221L109.304 501.303L1169.53 503.317L1043.17 468.547C1055.25 419.521 1088.95 309.248 1127.06 260.361L1105.31 255.182C1081.49 306.624 1036.33 408.68 1046.27 405.366C1017.96 394.318 959.686 369.115 953.057 356.686C944.771 341.149 916.806 295.576 904.377 281.076C891.948 266.575 885.733 234.699 820.481 224.342C755.228 213.984 738.587 181.527 751.016 152.526C760.96 129.325 795.278 140.671 820.481 148.267C840.851 159.315 883.04 177.293 888.84 176.465C896.091 175.429 958.236 184.751 957.2 173.357C956.164 161.964 913.698 166.002 904.377 171.286C900.579 137.451 882.212 86.3039 839.124 51.5026L791.934 73.3115C799.529 101.622 804.363 144.073 762.933 137.444C711.146 129.158 734.444 87.8121 740.659 77.4545C745.63 69.1685 691.633 65.0255 664.013 63.9898C669.537 95.0623 670.141 128.676 670.141 143.379C670.141 152.701 614.017 103.116 612.916 165.875C612.116 211.508 646.75 198.619 667.12 188.952C669.537 218.989 671.47 278.855 659.87 278.027C690.252 272.503 751.431 263.319 753.088 270.776C755.159 280.098 705.967 347.506 782.612 343.363C843.929 340.048 824.042 299.777 806.434 273.884C834.745 274.919 872.648 279.841 875.58 289.378C877.822 296.669 905.397 242.454 861.911 225.145C801.048 200.92 814.72 210.703 810.577 207.595C806.434 204.488 745.838 187.916 761.374 153.736C766.208 146.141 772.876 135.093 796.077 151.665C797.458 161.332 798.77 180.873 792.97 181.702C785.72 182.737 779.505 146.486 810.577 153.736C820.244 153.736 832.288 157.2 842.231 167.143C854.66 179.572 887.805 187.858 892.983 186.822C898.162 185.786 879.519 100.183 867.09 101.219C882.281 103.981 917.634 108.676 937.521 105.362C962.379 101.219 964.45 107.433 971.701 115.719C978.951 124.005 1063.88 215.823 1065.95 222.038C1071.48 231.36 1082.53 251.039 1082.53 255.182C1082.53 260.361 1088.74 266.575 1133.28 274.861L1142.6 250.003C1190.59 264.504 1291.15 290.183 1314.41 338.615" stroke="black" stroke-width="2"/>
</svg>
