<svg width="1922" height="3458" viewBox="0 0 1922 3458" fill="none" xmlns="http://www.w3.org/2000/svg">
<path d="M1657.41 0.615082C1666.74 22.3853 1684.95 42.3993 1688.54 110.422C1688.54 150.658 1698.86 263.136 1664.06 327.766C1636.44 385.423 1570.19 473.407 1545.33 504.065C1459.37 623.177 1238.49 828.217 1122.48 843.132C1096.59 848.311 1045.01 849.347 1045.84 812.06C1046.67 774.772 1097.04 759.447 1117.07 762.554C1138.47 763.935 1162.26 795.488 1126.63 861.776C1119.72 871.443 1095.76 896.577 1055.16 919.778C1014.56 942.979 1009.24 976.399 1011.66 990.209C1014.76 1003.67 1031.54 1034.95 1073.8 1052.35C1126.63 1074.1 1151.48 1081.36 1145.27 1096.89C1139.06 1112.43 1056.2 1109.32 1051.02 1107.25C1045.84 1105.18 1020.98 1097.93 1040.66 1078.25C1056.4 1062.5 1063.1 1071.69 1064.48 1078.25C1066.21 1084.46 1064.9 1101.86 1045.84 1121.75C1026.78 1141.64 1008.38 1168.97 975.406 1168.36C951.168 1167.91 928.797 1163.18 919.476 1141.43C915.48 1132.11 883.224 1136.25 853.187 1148.68C819.759 1162.51 792.078 1102.07 792.078 1097.93C792.078 1093.78 792.336 1092.66 797.257 1089.64C819.309 1076.11 881.119 1043.57 886.332 1040.96C892.546 1037.85 902.075 1032.67 907.047 1040.96L926.726 1067.89C929.488 1071.69 931.698 1081.15 918.44 1088.61C905.182 1096.06 855.604 1124.17 832.472 1137.29C824.877 1141.77 809.686 1145.57 797.257 1138.32C792.423 1135.56 782.135 1125.48 783.792 1119.68C784.985 1115.5 790.525 1112.53 794.15 1117.61C799.328 1124.86 784.828 1131.07 780.685 1127.96C777.169 1125.33 762.041 1108.28 776.542 1092.75C788.142 1080.32 819.353 1064.78 833.508 1058.57C851.116 1048.9 886.953 1028.95 889.439 1026.46C892.546 1023.35 910.154 1014.03 922.583 1023.35C932.526 1030.81 947.441 1045.1 953.655 1051.32C959.525 1056.84 967.742 1070.38 953.655 1080.32C939.569 1090.26 900.832 1114.15 883.224 1124.86C866.307 1133.14 831.437 1150.13 827.294 1151.79C822.115 1153.86 799.343 1156.85 791.042 1151.79C783.538 1147.21 761.563 1106.46 758.923 1101.08C757.041 1097.25 758.142 1096.2 750.066 1085.44C735.838 1066.5 619.736 1148.98 625.677 1141.43C646.037 1115.53 656.062 1105 662.376 1097.93C679.412 1078.86 684.36 1072.03 697.825 1058.57C708.596 1047.8 744.197 1018.69 750.066 1003.15C753.174 999.011 756.437 981.919 758.923 996.005C761.409 1010.09 705.075 988.646 685.396 981.051C634.299 965.169 531.276 932.37 527.961 928.227C523.818 923.048 514.497 923.049 533.14 909.584C551.784 896.119 551.784 897.155 552.819 884.726C553.855 872.297 546.605 764.626 543.498 762.554C542.462 758.066 543.497 749.711 555.927 752.197C571.463 755.304 716.361 788.194 720.504 789.23C724.647 790.265 756.873 794.852 762.052 816.603C766.195 834.003 766.184 845.022 767.22 860.903C768.946 887.142 771.363 941.899 767.22 951.014C762.041 962.407 755.827 966.55 741.326 963.443C729.726 960.957 610.821 922.358 552.819 903.369C542.117 899.571 521.125 885.347 522.783 858.832C524.44 832.317 521.402 779.472 519.675 748.054C518.294 740.458 521.125 725.474 543.498 726.303C571.463 727.339 740.29 762.554 752.719 768.769C768.256 772.567 799.121 786.376 798.293 811.234C797.257 842.307 801.371 959.115 799.343 966.213C797.74 971.824 792.078 978.979 792.078 986.229C792.078 993.48 792.011 1000.43 784.432 1010.81C782.229 1013.82 731.492 1060.77 731.492 1060.77C731.492 1060.77 645.517 1151.88 635.595 1156.85C624.841 1162.22 614.088 1157.4 608.75 1154.89C585.963 1144.19 540.183 1121.34 539.355 1115.53C538.319 1108.28 542.895 1110.35 546.002 1102.06C549.109 1093.78 555.289 1074.2 556.756 1068.17C557.49 1065.15 559.688 1045.85 565.065 1038.02C566.446 1036.29 567.384 1033.63 574.841 1033.63C584.163 1033.63 583.151 1031.67 584.928 1028.7C586.766 1025.61 603.862 996.238 615.255 999.345C626.648 1002.45 617.327 1026.27 615.255 1029.38C613.184 1032.49 630.791 1004.52 641.149 1010.74C649.435 1015.71 640.459 1032.83 634.935 1040.78C640.804 1031.45 656.346 1017.57 663.803 1024.2C671.261 1030.83 660.766 1042.62 652.135 1050.21C658.695 1042.96 676.132 1041.7 676.132 1049.34C676.132 1058.56 670.662 1060.92 662.376 1068.17C654.09 1075.42 650.18 1081.3 646.037 1085.44C641.894 1089.59 624.286 1108.28 610.821 1115.53C606.678 1117.61 597.978 1123.61 596.321 1131.07C594.249 1140.39 601.5 1150.75 592.178 1151.79C582.856 1152.82 577.677 1154.89 567.32 1148.68C556.962 1142.46 510.354 1124.86 506.211 1115.53C502.068 1106.21 454.596 1074.69 448.208 1070.29C441.399 1064.42 440.909 1064.51 434.555 1057.58C429.179 1051.72 405.227 1050.74 400.339 1050.74C395.707 1050.74 363.277 1053.39 377.777 1055.46C385.373 1056.5 404.707 1056.7 421.279 1049.25C441.994 1039.92 437.851 1049.25 448.208 1049.25C458.566 1049.25 492.67 1048.93 511.965 1038.02C530.608 1027.47 542.645 1028.7 553.855 1028.7C565.065 1028.7 574.57 1021.44 569.391 1017.3C564.213 1013.16 550.748 1013.16 530.033 1018.34C509.318 1023.52 504.139 1024.55 503.103 1021.44C502.067 1018.34 498.96 1012.12 508.282 1004.87C517.604 997.623 533.663 988.172 544.021 988.171C554.378 988.171 573.534 993.479 576.642 989.337C579.421 985.631 577.678 969.657 530.033 973.801C519.675 975.872 504.968 978.15 516.568 970.693C531.069 961.371 537.283 961.371 546.605 964.479C555.393 967.408 561.105 967.586 560.07 964.479C559.034 961.371 548.677 953.085 539.355 952.049C532.104 952.049 517.811 955.571 506.211 965.514C503.449 967.931 499.582 970.486 506.211 961.371C514.497 949.978 519.503 954.121 518.64 948.942C517.604 942.728 509.318 947.907 506.211 948.942C503.103 949.978 473.066 972.765 457.53 989.337C449.589 996.587 432.672 997.873 428.529 1003.67C423.35 1010.92 409.886 1007.82 402.635 1008.85C400.564 1008.16 394.575 1013.21 380.884 1014.03C371.989 1014.57 366.123 1013.59 364.168 1010.66C363.191 1009.19 362.213 1007.51 362.213 1004.79C362.213 1002.07 362.213 1001.37 364.657 998.925C367.101 996.481 374.922 998.436 374.922 998.436C374.922 998.436 379.321 999.903 383.231 1000.88C388.574 1002.22 419.705 1008.46 421.777 983.602C423.848 958.744 424.884 899.706 407.276 885.205C401.407 880.026 381.797 872.569 350.31 884.17C318.823 895.77 329.595 906.956 338.917 911.099C347.893 915.587 369.782 922.492 385.526 914.206C405.205 903.849 409.348 893.491 392.776 889.348C376.204 885.205 338.917 888.312 330.631 907.992C322.345 927.671 338.917 949.422 343.06 955.637C347.203 961.851 357.56 978.423 359.632 983.602C361.703 988.78 359.632 990.852 366.882 990.852C374.132 990.852 419.705 992.923 419.705 976.351C419.705 963.094 355.859 988.171 355.859 988.171C355.859 988.171 110.968 994.145 133.34 1109.32C161.305 1253.29 460.994 1213.12 453.743 1174.8C446.493 1136.48 239.854 1136.96 258.666 1222.22C264.942 1250.66 336.892 1281.94 409.33 1280.33C513.298 1278.02 498.851 1253.15 489.083 1245.12C461.438 1222.39 333.889 1222.49 344.154 1314.51C350.232 1369 447.271 1378.62 484.391 1378.62C503.035 1375.86 541.772 1370.13 539.286 1344.44C536.8 1318.75 473.686 1334.81 444.934 1349.88C399.139 1378.62 412.382 1424.62 432.851 1458.81C477.484 1533.35 765.464 1621.26 1055.16 1650C1464.76 1690.63 1804.84 1482.59 1821.63 1767.97C1836.05 2013.23 1492.66 2062.67 1117.07 2013.23C958.537 1992.36 423.1 1999.96 171.914 2138.71C18.5621 2223.42 -129.145 2521.85 192.386 2713.93C578.784 2944.77 967.79 2303.7 1328.6 2138.71C1689.41 1973.72 1871.68 2106.43 1893.1 2171.35C1986.11 2453.31 1796.66 2692.2 1198.09 2653.52C1002.01 2640.85 -310.246 2832.61 131.339 3331.29C379.579 3611.63 926.428 3024.75 1089.78 2890.46C1300.6 2717.15 1274.74 3230.55 1250.92 3326.88C1245.39 3352.08 1227.09 3399.59 1198.09 3387.99C1161.84 3373.49 1358.64 3320.66 1358.64 3280.27V3240.91L1563.34 3118.65L1383.49 3249.2L1449.78 3291.66L1564.75 3117.66L1328.6 3218.12L1348.28 3233.66V3294.77C1360.02 3283.03 1384.74 3260.8 1389.71 3265.77C1395.92 3271.98 1389.71 3305.13 1389.71 3326.88C1389.71 3348.63 1381.42 3410.77 1432.17 3435.63C1482.93 3460.49 1504.68 3481.2 1616.54 3387.99C1640.01 3365.89 1679.93 3320.25 1651.75 3314.45C1616.54 3307.2 1608.25 3339.31 1608.25 3353.81C1608.25 3368.31 1612.39 3378.67 1632.07 3387.99C1651.75 3397.31 1683.86 3384.88 1702.5 3369.34C1721.15 3353.81 1910.64 3175.66 1921 3117.66" stroke="black" stroke-width="2"/>
</svg>
