<svg width="1614" height="2403" viewBox="0 0 1614 2403" fill="none" xmlns="http://www.w3.org/2000/svg">
<path d="M1332.36 244.039C1332.72 245.451 1338.71 246.322 1340.15 237.072C1341.89 225.861 1342.25 214.469 1341.9 207.406C1341.55 200.343 1340.84 192.785 1332.36 193.633C1323.89 194.481 1309.06 193.986 1302.7 193.633C1304.46 180.566 1306.94 151.041 1302.7 137.48C1297.4 120.528 1288.93 101.458 1282.57 109.934C1276.21 118.41 1294.22 126.885 1305.88 126.885C1317.53 126.885 1318.59 96.1602 1314.35 92.9819C1310.96 90.4393 1309.41 94.7471 1309.06 97.2192C1307.29 106.755 1306.3 126.038 1316.47 126.885C1329.19 127.945 1345.08 116.29 1339.78 112.052C1334.48 107.815 1322.83 115.231 1320.71 131.123C1318.59 147.015 1310.12 195.751 1316.47 196.811C1322.83 197.87 1335.75 197.87 1336.6 189.395C1337.66 178.8 1335.54 176.681 1339.78 172.443C1344.02 168.205 1373.68 140.658 1372.62 112.052C1371.57 83.4464 1369.45 40.0076 1310.12 40.0078C1250.78 40.008 1241.25 88.7436 1243.37 114.171C1245.49 139.599 1256.08 155.491 1270.91 168.205C1273.74 170.324 1279.18 176.045 1278.33 181.978C1277.98 187.275 1277.15 193.539 1279.39 196.87C1280.57 198.627 1285.31 201.97 1298.46 197.87C1309.15 194.539 1299.6 194.598 1290.65 196.871C1286.45 197.936 1277.15 204.039 1283.63 208.465C1285.55 209.776 1290.29 210.584 1291.99 210.584C1294.1 210.585 1279.93 211.171 1281.57 218.001C1282.84 223.298 1290.93 222.239 1293.04 221.179C1290.22 222.592 1283.46 226.785 1284.69 232.833C1285.63 237.492 1292.1 236.012 1295.28 236.012C1298.46 236.012 1298.46 237.071 1298.46 240.25C1298.46 243.428 1298.15 245.039 1300.58 246.666C1302.34 247.843 1317.97 248.657 1321.15 246.539C1331.15 241.539 1327.07 232.539 1313.65 232.539C1305.15 232.539 1299.65 232.539 1301.76 235.071C1304.65 238.539 1321.71 238.25 1328.07 235.071C1334.42 231.893 1331.3 227.417 1327.07 225.298C1322.83 223.179 1295.28 223.119 1295.28 226.298C1295.28 229.476 1329.38 228.259 1333.42 224.238C1336.65 221.039 1335.35 214.141 1326.01 212.525C1311.65 210.039 1294.46 212.346 1294.46 215.525C1294.46 218.704 1327.49 216.584 1331.31 214.039C1337.15 211.039 1336.65 206.539 1331.3 204.108C1324.84 201.165 1287.8 201.93 1292.7 205.108C1299.87 209.759 1329.69 203.727 1334.48 198.93C1337.66 195.752 1345.08 180.919 1354.61 186.216C1350.38 179.153 1347.2 166.51 1368.39 172.443C1363.8 160.082 1364.57 140.023 1404.41 158.67C1386.05 143.484 1362.45 112.476 1415 109.934C1397.7 100.398 1371.57 80.0561 1405.47 74.9707C1390.64 72.8517 1366.06 60.1377 1386.4 26.2344C1368.39 40.0082 1301.64 42.5504 1331.3 10.3423C1320.71 24.4687 1298.25 42.3382 1293.16 0.806641C1291.4 22.7025 1281.93 58.6545 1258.2 27.2939C1260.32 46.0114 1252.9 76.4541 1206.29 48.4839C1222.88 63.3166 1246.55 92.9819 1208.41 92.9819C1226.42 101.458 1250.78 120.528 1204.17 129.004C1225.36 137.127 1258.41 157.186 1221.12 172.443C1238.42 168.558 1273.25 167.993 1274.09 196.811C1273.39 208.465 1273.03 232.621 1277.27 236.012C1279.39 240.25 1287.02 248.937 1300.58 249.785C1317.53 250.844 1338.72 245.547 1337.66 250.844C1338.37 258.614 1340.42 276.06 1342.96 283.688C1346.14 293.224 1355.67 477.031 1344.02 505.637C1332.36 534.243 1306.94 589.336 1246.55 616.883C1186.16 644.43 1038.89 696.344 949.891 800.173C860.895 904.003 850.3 1263.17 739.054 1297.07C627.809 1330.97 6.95221 1244.64 1.65479 1640.89C-3.64262 2037.13 388.145 2061.54 414.853 2078.81C442.446 2096.66 425.448 2118.01 414.853 2118.01C404.258 2118.01 393.663 2078.81 444.518 2078.81C495.373 2078.81 570.597 2070.34 574.835 2050.21C579.073 2030.08 583.31 2009.95 567.418 2025.84C551.526 2041.73 526.098 2227.14 444.518 2207.01C362.938 2186.88 388.366 2161.45 394.723 2162.51C401.079 2163.57 461.47 2258.92 548.348 2134.96C571.303 2115.19 613.824 2068.85 600.262 2041.73C583.31 2007.83 555.764 2204.07 531.396 2192.18C507.028 2180.29 591.786 2110.6 583.31 2142.38C574.835 2174.17 549.407 2201.71 574.835 2192.18C600.262 2182.64 650.058 2151.92 627.809 2134.96C605.56 2118.01 568.478 2163.57 591.786 2187.94C615.095 2212.31 650.058 2130.73 648.998 2128.61C647.939 2126.49 601.322 2200.65 618.273 2194.3C635.225 2187.94 693.497 2127.55 680.783 2128.61C668.069 2129.67 664.891 2194.3 655.355 2192.18C645.82 2190.06 688.199 2116.95 704.091 2128.61C719.984 2140.26 674.426 2191.12 688.199 2187.94C701.972 2184.76 797.326 2054.44 778.255 2050.21C759.185 2045.97 739.054 2187.94 724.222 2187.94C709.389 2187.94 764.482 2113.77 776.136 2116.95C787.791 2120.13 760.244 2150.86 746.471 2146.62C732.697 2142.38 761.303 2137.08 764.482 2146.62C767.66 2156.15 743.292 2187.94 768.72 2187.94C794.147 2187.94 828.051 2151.92 828.051 2199.59C828.051 2247.27 774.017 2276.94 788.85 2293.89C803.683 2310.84 890.56 2253.63 874.668 2213.37C858.776 2173.11 805.802 2417.85 786.731 2400.89C767.66 2383.94 750.709 2359.57 836.527 2304.48C922.345 2249.39 885.263 2259.98 879.966 2262.1C874.668 2264.22 829.11 2292.83 856.657 2316.14C884.203 2339.45 944.594 2268.46 910.691 2265.28C876.787 2262.1 855.598 2320.37 889.501 2318.26C923.404 2316.14 950.951 2268.46 947.772 2265.28C944.594 2262.1 907.512 2311.9 926.583 2310.84C945.653 2309.78 977.438 2272.7 974.26 2265.28C971.081 2257.86 929.761 2310.84 954.129 2310.84C978.497 2310.84 1132.12 2283.29 1253.96 2175.23C1274.8 2158.63 1311.17 2124.58 1289.99 2121.19C1268.8 2117.8 1257.14 2132.49 1253.96 2140.26C1253.96 2128.61 1250.15 2105.94 1234.89 2108.48C1215.82 2111.66 1232.77 2169.93 1258.2 2187.94C1283.63 2205.95 1515.65 2371.23 1613.13 2229.26" stroke="black" stroke-width="2"/>
</svg>
